<?xml version="1.0" encoding="UTF-8"?>
<!-- Generated by Pixelmator Pro 4.0 -->
<svg width="1080" height="1080" viewBox="0 0 1080 1080" xmlns="http://www.w3.org/2000/svg">
    <path id="Triangle-copy" fill="#ffffff" fill-rule="evenodd" stroke="none" d="M 858.5 551.8125 L 914.734375 529 L 917 529 L 916.632813 528.234375 L 1038 479 L 916.234375 429.617188 L 917 428 L 912.265625 428 L 859.085938 406.4375 L 788.5 257 L 717.664063 406.9375 L 665.734375 428 L 660 428 L 660.914063 429.953125 L 540 479 L 660.523438 527.890625 L 660 529 L 663.265625 529 L 718.25 551.304688 L 788.5 700 Z"/>
    <path id="Triangle-copy-2" fill="#ffffff" fill-rule="evenodd" stroke="none" d="M 543.890625 183 L 572.117188 171.546875 L 573.257813 171.546875 L 573.070313 171.164063 L 634 146.445313 L 572.875 121.65625 L 573.257813 120.84375 L 570.882813 120.84375 L 544.1875 110.023438 L 508.75 35 L 473.1875 110.273438 L 447.117188 120.84375 L 444.242188 120.84375 L 444.703125 121.828125 L 384 146.445313 L 444.5 170.992188 L 444.242188 171.546875 L 445.882813 171.546875 L 473.476563 182.75 L 508.75 257.390625 Z"/>
</svg>
